<svg width="704" height="109" viewBox="0 0 704 109" fill="none" xmlns="http://www.w3.org/2000/svg">
<path d="M104.688 6.768V107.568H94.464V26.928L54.864 94.752H49.824L10.224 27.36V107.568H0V6.768H8.784L52.56 81.504L95.904 6.768H104.688Z" fill="black"/>
<path d="M166.331 108.288C159.035 108.288 152.459 106.656 146.603 103.392C140.747 100.032 136.139 95.424 132.779 89.568C129.419 83.712 127.739 77.088 127.739 69.696C127.739 62.304 129.419 55.68 132.779 49.824C136.139 43.968 140.747 39.408 146.603 36.144C152.459 32.88 159.035 31.248 166.331 31.248C173.627 31.248 180.203 32.88 186.059 36.144C191.915 39.408 196.475 43.968 199.739 49.824C203.099 55.68 204.779 62.304 204.779 69.696C204.779 77.088 203.099 83.712 199.739 89.568C196.475 95.424 191.915 100.032 186.059 103.392C180.203 106.656 173.627 108.288 166.331 108.288ZM166.331 99.216C171.707 99.216 176.507 98.016 180.731 95.616C185.051 93.12 188.411 89.616 190.811 85.104C193.211 80.592 194.411 75.456 194.411 69.696C194.411 63.936 193.211 58.8 190.811 54.288C188.411 49.776 185.051 46.32 180.731 43.92C176.507 41.424 171.707 40.176 166.331 40.176C160.955 40.176 156.107 41.424 151.787 43.92C147.563 46.32 144.203 49.776 141.707 54.288C139.307 58.8 138.107 63.936 138.107 69.696C138.107 75.456 139.307 80.592 141.707 85.104C144.203 89.616 147.563 93.12 151.787 95.616C156.107 98.016 160.955 99.216 166.331 99.216Z" fill="black"/>
<path d="M294.773 0.719997V107.568H284.981V92.592C281.909 97.68 277.828 101.568 272.74 104.256C267.748 106.944 262.084 108.288 255.748 108.288C248.644 108.288 242.212 106.656 236.452 103.392C230.692 100.128 226.181 95.568 222.917 89.712C219.653 83.856 218.02 77.184 218.02 69.696C218.02 62.208 219.653 55.536 222.917 49.68C226.181 43.824 230.692 39.312 236.452 36.144C242.212 32.88 248.644 31.248 255.748 31.248C261.892 31.248 267.412 32.544 272.308 35.136C277.3 37.632 281.381 41.328 284.549 46.224V0.719997H294.773ZM256.612 99.216C261.892 99.216 266.645 98.016 270.869 95.616C275.189 93.12 278.548 89.616 280.948 85.104C283.444 80.592 284.693 75.456 284.693 69.696C284.693 63.936 283.444 58.8 280.948 54.288C278.548 49.776 275.189 46.32 270.869 43.92C266.645 41.424 261.892 40.176 256.612 40.176C251.236 40.176 246.388 41.424 242.068 43.92C237.844 46.32 234.484 49.776 231.988 54.288C229.588 58.8 228.389 63.936 228.389 69.696C228.389 75.456 229.588 80.592 231.988 85.104C234.484 89.616 237.844 93.12 242.068 95.616C246.388 98.016 251.236 99.216 256.612 99.216Z" fill="black"/>
<path d="M417.71 31.248C427.214 31.248 434.654 33.984 440.03 39.456C445.502 44.928 448.238 52.992 448.238 63.648V107.568H438.014V64.656C438.014 56.784 436.094 50.784 432.254 46.656C428.51 42.528 423.182 40.464 416.27 40.464C408.398 40.464 402.206 42.912 397.694 47.808C393.182 52.608 390.926 59.28 390.926 67.824V107.568H380.702V64.656C380.702 56.784 378.782 50.784 374.942 46.656C371.198 42.528 365.822 40.464 358.814 40.464C351.038 40.464 344.846 42.912 340.238 47.808C335.726 52.608 333.47 59.28 333.47 67.824V107.568H323.246V31.824H333.038V45.648C335.726 41.04 339.47 37.488 344.27 34.992C349.07 32.496 354.59 31.248 360.83 31.248C367.166 31.248 372.638 32.592 377.246 35.28C381.95 37.968 385.454 41.952 387.758 47.232C390.542 42.24 394.526 38.352 399.71 35.568C404.99 32.688 410.99 31.248 417.71 31.248Z" fill="black"/>
<path d="M507.206 108.288C499.91 108.288 493.334 106.656 487.478 103.392C481.622 100.032 477.014 95.424 473.654 89.568C470.294 83.712 468.614 77.088 468.614 69.696C468.614 62.304 470.294 55.68 473.654 49.824C477.014 43.968 481.622 39.408 487.478 36.144C493.334 32.88 499.91 31.248 507.206 31.248C514.502 31.248 521.078 32.88 526.934 36.144C532.79 39.408 537.35 43.968 540.614 49.824C543.974 55.68 545.654 62.304 545.654 69.696C545.654 77.088 543.974 83.712 540.614 89.568C537.35 95.424 532.79 100.032 526.934 103.392C521.078 106.656 514.502 108.288 507.206 108.288ZM507.206 99.216C512.582 99.216 517.382 98.016 521.606 95.616C525.926 93.12 529.286 89.616 531.686 85.104C534.086 80.592 535.286 75.456 535.286 69.696C535.286 63.936 534.086 58.8 531.686 54.288C529.286 49.776 525.926 46.32 521.606 43.92C517.382 41.424 512.582 40.176 507.206 40.176C501.83 40.176 496.982 41.424 492.662 43.92C488.438 46.32 485.078 49.776 482.582 54.288C480.182 58.8 478.982 63.936 478.982 69.696C478.982 75.456 480.182 80.592 482.582 85.104C485.078 89.616 488.438 93.12 492.662 95.616C496.982 98.016 501.83 99.216 507.206 99.216Z" fill="black"/>
<path d="M606.415 102.96C604.495 104.688 602.096 106.032 599.216 106.992C596.432 107.856 593.503 108.288 590.431 108.288C583.327 108.288 577.856 106.368 574.016 102.528C570.176 98.688 568.255 93.264 568.255 86.256V40.464H554.719V31.824H568.255V15.264H578.479V31.824H601.519V40.464H578.479V85.68C578.479 90.192 579.584 93.648 581.792 96.048C584.096 98.352 587.359 99.504 591.583 99.504C593.695 99.504 595.711 99.168 597.631 98.496C599.647 97.824 601.375 96.864 602.815 95.616L606.415 102.96Z" fill="black"/>
<path d="M625.027 31.824H635.251V107.568H625.027V31.824ZM630.211 15.264C628.099 15.264 626.323 14.544 624.883 13.104C623.443 11.664 622.724 9.936 622.724 7.92C622.724 6 623.443 4.32 624.883 2.88C626.323 1.44 628.099 0.719997 630.211 0.719997C632.323 0.719997 634.099 1.44 635.539 2.88C636.979 4.224 637.699 5.856 637.699 7.776C637.699 9.888 636.979 11.664 635.539 13.104C634.099 14.544 632.323 15.264 630.211 15.264Z" fill="black"/>
<path d="M688.755 8.64C684.339 8.64 680.979 9.84 678.675 12.24C676.467 14.64 675.363 18.192 675.363 22.896V31.824H698.691V40.464H675.651V107.568H665.427V40.464H651.891V31.824H665.427V22.464C665.427 15.552 667.395 10.08 671.331 6.048C675.363 2.016 681.027 0 688.323 0C691.203 0 693.987 0.432001 696.675 1.296C699.363 2.064 701.619 3.216 703.443 4.752L699.987 12.384C697.011 9.888 693.267 8.64 688.755 8.64Z" fill="black"/>
</svg>
