<svg width="708" height="113" viewBox="0 0 708 113" fill="none" xmlns="http://www.w3.org/2000/svg">
<mask id="path-1-outside-1" maskUnits="userSpaceOnUse" x="0" y="0" width="708" height="113" fill="black">
<rect fill="white" width="708" height="113"/>
<path d="M106.688 8.768V109.568H96.464V28.928L56.864 96.752H51.824L12.224 29.36V109.568H2V8.768H10.784L54.56 83.504L97.904 8.768H106.688Z"/>
<path d="M168.331 110.288C161.035 110.288 154.459 108.656 148.603 105.392C142.747 102.032 138.139 97.424 134.779 91.568C131.419 85.712 129.739 79.088 129.739 71.696C129.739 64.304 131.419 57.68 134.779 51.824C138.139 45.968 142.747 41.408 148.603 38.144C154.459 34.88 161.035 33.248 168.331 33.248C175.627 33.248 182.203 34.88 188.059 38.144C193.915 41.408 198.475 45.968 201.739 51.824C205.099 57.68 206.779 64.304 206.779 71.696C206.779 79.088 205.099 85.712 201.739 91.568C198.475 97.424 193.915 102.032 188.059 105.392C182.203 108.656 175.627 110.288 168.331 110.288ZM168.331 101.216C173.707 101.216 178.507 100.016 182.731 97.616C187.051 95.12 190.411 91.616 192.811 87.104C195.211 82.592 196.411 77.456 196.411 71.696C196.411 65.936 195.211 60.8 192.811 56.288C190.411 51.776 187.051 48.32 182.731 45.92C178.507 43.424 173.707 42.176 168.331 42.176C162.955 42.176 158.107 43.424 153.787 45.92C149.563 48.32 146.203 51.776 143.707 56.288C141.307 60.8 140.107 65.936 140.107 71.696C140.107 77.456 141.307 82.592 143.707 87.104C146.203 91.616 149.563 95.12 153.787 97.616C158.107 100.016 162.955 101.216 168.331 101.216Z"/>
<path d="M296.773 2.72V109.568H286.981V94.592C283.909 99.68 279.828 103.568 274.74 106.256C269.748 108.944 264.084 110.288 257.748 110.288C250.644 110.288 244.212 108.656 238.452 105.392C232.692 102.128 228.181 97.568 224.917 91.712C221.653 85.856 220.02 79.184 220.02 71.696C220.02 64.208 221.653 57.536 224.917 51.68C228.181 45.824 232.692 41.312 238.452 38.144C244.212 34.88 250.644 33.248 257.748 33.248C263.892 33.248 269.412 34.544 274.308 37.136C279.3 39.632 283.381 43.328 286.549 48.224V2.72H296.773ZM258.612 101.216C263.892 101.216 268.645 100.016 272.869 97.616C277.189 95.12 280.548 91.616 282.948 87.104C285.444 82.592 286.693 77.456 286.693 71.696C286.693 65.936 285.444 60.8 282.948 56.288C280.548 51.776 277.189 48.32 272.869 45.92C268.645 43.424 263.892 42.176 258.612 42.176C253.236 42.176 248.388 43.424 244.068 45.92C239.844 48.32 236.484 51.776 233.988 56.288C231.588 60.8 230.389 65.936 230.389 71.696C230.389 77.456 231.588 82.592 233.988 87.104C236.484 91.616 239.844 95.12 244.068 97.616C248.388 100.016 253.236 101.216 258.612 101.216Z"/>
<path d="M419.71 33.248C429.214 33.248 436.654 35.984 442.03 41.456C447.502 46.928 450.238 54.992 450.238 65.648V109.568H440.014V66.656C440.014 58.784 438.094 52.784 434.254 48.656C430.51 44.528 425.182 42.464 418.27 42.464C410.398 42.464 404.206 44.912 399.694 49.808C395.182 54.608 392.926 61.28 392.926 69.824V109.568H382.702V66.656C382.702 58.784 380.782 52.784 376.942 48.656C373.198 44.528 367.822 42.464 360.814 42.464C353.038 42.464 346.846 44.912 342.238 49.808C337.726 54.608 335.47 61.28 335.47 69.824V109.568H325.246V33.824H335.038V47.648C337.726 43.04 341.47 39.488 346.27 36.992C351.07 34.496 356.59 33.248 362.83 33.248C369.166 33.248 374.638 34.592 379.246 37.28C383.95 39.968 387.454 43.952 389.758 49.232C392.542 44.24 396.526 40.352 401.71 37.568C406.99 34.688 412.99 33.248 419.71 33.248Z"/>
<path d="M509.206 110.288C501.91 110.288 495.334 108.656 489.478 105.392C483.622 102.032 479.014 97.424 475.654 91.568C472.294 85.712 470.614 79.088 470.614 71.696C470.614 64.304 472.294 57.68 475.654 51.824C479.014 45.968 483.622 41.408 489.478 38.144C495.334 34.88 501.91 33.248 509.206 33.248C516.502 33.248 523.078 34.88 528.934 38.144C534.79 41.408 539.35 45.968 542.614 51.824C545.974 57.68 547.654 64.304 547.654 71.696C547.654 79.088 545.974 85.712 542.614 91.568C539.35 97.424 534.79 102.032 528.934 105.392C523.078 108.656 516.502 110.288 509.206 110.288ZM509.206 101.216C514.582 101.216 519.382 100.016 523.606 97.616C527.926 95.12 531.286 91.616 533.686 87.104C536.086 82.592 537.286 77.456 537.286 71.696C537.286 65.936 536.086 60.8 533.686 56.288C531.286 51.776 527.926 48.32 523.606 45.92C519.382 43.424 514.582 42.176 509.206 42.176C503.83 42.176 498.982 43.424 494.662 45.92C490.438 48.32 487.078 51.776 484.582 56.288C482.182 60.8 480.982 65.936 480.982 71.696C480.982 77.456 482.182 82.592 484.582 87.104C487.078 91.616 490.438 95.12 494.662 97.616C498.982 100.016 503.83 101.216 509.206 101.216Z"/>
<path d="M608.415 104.96C606.495 106.688 604.096 108.032 601.216 108.992C598.432 109.856 595.503 110.288 592.431 110.288C585.327 110.288 579.856 108.368 576.016 104.528C572.176 100.688 570.255 95.264 570.255 88.256V42.464H556.719V33.824H570.255V17.264H580.479V33.824H603.519V42.464H580.479V87.68C580.479 92.192 581.584 95.648 583.792 98.048C586.096 100.352 589.359 101.504 593.583 101.504C595.695 101.504 597.711 101.168 599.631 100.496C601.647 99.824 603.375 98.864 604.815 97.616L608.415 104.96Z"/>
<path d="M627.027 33.824H637.251V109.568H627.027V33.824ZM632.211 17.264C630.099 17.264 628.323 16.544 626.883 15.104C625.443 13.664 624.724 11.936 624.724 9.92C624.724 8 625.443 6.32 626.883 4.88C628.323 3.44 630.099 2.72 632.211 2.72C634.323 2.72 636.099 3.44 637.539 4.88C638.979 6.224 639.699 7.856 639.699 9.776C639.699 11.888 638.979 13.664 637.539 15.104C636.099 16.544 634.323 17.264 632.211 17.264Z"/>
<path d="M690.755 10.64C686.339 10.64 682.979 11.84 680.675 14.24C678.467 16.64 677.363 20.192 677.363 24.896V33.824H700.691V42.464H677.651V109.568H667.427V42.464H653.891V33.824H667.427V24.464C667.427 17.552 669.395 12.08 673.331 8.048C677.363 4.016 683.027 2 690.323 2C693.203 2 695.987 2.432 698.675 3.296C701.363 4.064 703.619 5.216 705.443 6.752L701.987 14.384C699.011 11.888 695.267 10.64 690.755 10.64Z"/>
</mask>
<path d="M106.688 8.768V109.568H96.464V28.928L56.864 96.752H51.824L12.224 29.36V109.568H2V8.768H10.784L54.56 83.504L97.904 8.768H106.688Z" fill="#A6A6A6"/>
<path d="M168.331 110.288C161.035 110.288 154.459 108.656 148.603 105.392C142.747 102.032 138.139 97.424 134.779 91.568C131.419 85.712 129.739 79.088 129.739 71.696C129.739 64.304 131.419 57.68 134.779 51.824C138.139 45.968 142.747 41.408 148.603 38.144C154.459 34.88 161.035 33.248 168.331 33.248C175.627 33.248 182.203 34.88 188.059 38.144C193.915 41.408 198.475 45.968 201.739 51.824C205.099 57.68 206.779 64.304 206.779 71.696C206.779 79.088 205.099 85.712 201.739 91.568C198.475 97.424 193.915 102.032 188.059 105.392C182.203 108.656 175.627 110.288 168.331 110.288ZM168.331 101.216C173.707 101.216 178.507 100.016 182.731 97.616C187.051 95.12 190.411 91.616 192.811 87.104C195.211 82.592 196.411 77.456 196.411 71.696C196.411 65.936 195.211 60.8 192.811 56.288C190.411 51.776 187.051 48.32 182.731 45.92C178.507 43.424 173.707 42.176 168.331 42.176C162.955 42.176 158.107 43.424 153.787 45.92C149.563 48.32 146.203 51.776 143.707 56.288C141.307 60.8 140.107 65.936 140.107 71.696C140.107 77.456 141.307 82.592 143.707 87.104C146.203 91.616 149.563 95.12 153.787 97.616C158.107 100.016 162.955 101.216 168.331 101.216Z" fill="#A6A6A6"/>
<path d="M296.773 2.72V109.568H286.981V94.592C283.909 99.68 279.828 103.568 274.74 106.256C269.748 108.944 264.084 110.288 257.748 110.288C250.644 110.288 244.212 108.656 238.452 105.392C232.692 102.128 228.181 97.568 224.917 91.712C221.653 85.856 220.02 79.184 220.02 71.696C220.02 64.208 221.653 57.536 224.917 51.68C228.181 45.824 232.692 41.312 238.452 38.144C244.212 34.88 250.644 33.248 257.748 33.248C263.892 33.248 269.412 34.544 274.308 37.136C279.3 39.632 283.381 43.328 286.549 48.224V2.72H296.773ZM258.612 101.216C263.892 101.216 268.645 100.016 272.869 97.616C277.189 95.12 280.548 91.616 282.948 87.104C285.444 82.592 286.693 77.456 286.693 71.696C286.693 65.936 285.444 60.8 282.948 56.288C280.548 51.776 277.189 48.32 272.869 45.92C268.645 43.424 263.892 42.176 258.612 42.176C253.236 42.176 248.388 43.424 244.068 45.92C239.844 48.32 236.484 51.776 233.988 56.288C231.588 60.8 230.389 65.936 230.389 71.696C230.389 77.456 231.588 82.592 233.988 87.104C236.484 91.616 239.844 95.12 244.068 97.616C248.388 100.016 253.236 101.216 258.612 101.216Z" fill="#A6A6A6"/>
<path d="M419.71 33.248C429.214 33.248 436.654 35.984 442.03 41.456C447.502 46.928 450.238 54.992 450.238 65.648V109.568H440.014V66.656C440.014 58.784 438.094 52.784 434.254 48.656C430.51 44.528 425.182 42.464 418.27 42.464C410.398 42.464 404.206 44.912 399.694 49.808C395.182 54.608 392.926 61.28 392.926 69.824V109.568H382.702V66.656C382.702 58.784 380.782 52.784 376.942 48.656C373.198 44.528 367.822 42.464 360.814 42.464C353.038 42.464 346.846 44.912 342.238 49.808C337.726 54.608 335.47 61.28 335.47 69.824V109.568H325.246V33.824H335.038V47.648C337.726 43.04 341.47 39.488 346.27 36.992C351.07 34.496 356.59 33.248 362.83 33.248C369.166 33.248 374.638 34.592 379.246 37.28C383.95 39.968 387.454 43.952 389.758 49.232C392.542 44.24 396.526 40.352 401.71 37.568C406.99 34.688 412.99 33.248 419.71 33.248Z" fill="#A6A6A6"/>
<path d="M509.206 110.288C501.91 110.288 495.334 108.656 489.478 105.392C483.622 102.032 479.014 97.424 475.654 91.568C472.294 85.712 470.614 79.088 470.614 71.696C470.614 64.304 472.294 57.68 475.654 51.824C479.014 45.968 483.622 41.408 489.478 38.144C495.334 34.88 501.91 33.248 509.206 33.248C516.502 33.248 523.078 34.88 528.934 38.144C534.79 41.408 539.35 45.968 542.614 51.824C545.974 57.68 547.654 64.304 547.654 71.696C547.654 79.088 545.974 85.712 542.614 91.568C539.35 97.424 534.79 102.032 528.934 105.392C523.078 108.656 516.502 110.288 509.206 110.288ZM509.206 101.216C514.582 101.216 519.382 100.016 523.606 97.616C527.926 95.12 531.286 91.616 533.686 87.104C536.086 82.592 537.286 77.456 537.286 71.696C537.286 65.936 536.086 60.8 533.686 56.288C531.286 51.776 527.926 48.32 523.606 45.92C519.382 43.424 514.582 42.176 509.206 42.176C503.83 42.176 498.982 43.424 494.662 45.92C490.438 48.32 487.078 51.776 484.582 56.288C482.182 60.8 480.982 65.936 480.982 71.696C480.982 77.456 482.182 82.592 484.582 87.104C487.078 91.616 490.438 95.12 494.662 97.616C498.982 100.016 503.83 101.216 509.206 101.216Z" fill="#A6A6A6"/>
<path d="M608.415 104.96C606.495 106.688 604.096 108.032 601.216 108.992C598.432 109.856 595.503 110.288 592.431 110.288C585.327 110.288 579.856 108.368 576.016 104.528C572.176 100.688 570.255 95.264 570.255 88.256V42.464H556.719V33.824H570.255V17.264H580.479V33.824H603.519V42.464H580.479V87.68C580.479 92.192 581.584 95.648 583.792 98.048C586.096 100.352 589.359 101.504 593.583 101.504C595.695 101.504 597.711 101.168 599.631 100.496C601.647 99.824 603.375 98.864 604.815 97.616L608.415 104.96Z" fill="#A6A6A6"/>
<path d="M627.027 33.824H637.251V109.568H627.027V33.824ZM632.211 17.264C630.099 17.264 628.323 16.544 626.883 15.104C625.443 13.664 624.724 11.936 624.724 9.92C624.724 8 625.443 6.32 626.883 4.88C628.323 3.44 630.099 2.72 632.211 2.72C634.323 2.72 636.099 3.44 637.539 4.88C638.979 6.224 639.699 7.856 639.699 9.776C639.699 11.888 638.979 13.664 637.539 15.104C636.099 16.544 634.323 17.264 632.211 17.264Z" fill="#A6A6A6"/>
<path d="M690.755 10.64C686.339 10.64 682.979 11.84 680.675 14.24C678.467 16.64 677.363 20.192 677.363 24.896V33.824H700.691V42.464H677.651V109.568H667.427V42.464H653.891V33.824H667.427V24.464C667.427 17.552 669.395 12.08 673.331 8.048C677.363 4.016 683.027 2 690.323 2C693.203 2 695.987 2.432 698.675 3.296C701.363 4.064 703.619 5.216 705.443 6.752L701.987 14.384C699.011 11.888 695.267 10.64 690.755 10.64Z" fill="#A6A6A6"/>
<path d="M106.688 8.768V109.568H96.464V28.928L56.864 96.752H51.824L12.224 29.36V109.568H2V8.768H10.784L54.56 83.504L97.904 8.768H106.688Z" stroke="#A6A6A6" stroke-width="4" mask="url(#path-1-outside-1)"/>
<path d="M168.331 110.288C161.035 110.288 154.459 108.656 148.603 105.392C142.747 102.032 138.139 97.424 134.779 91.568C131.419 85.712 129.739 79.088 129.739 71.696C129.739 64.304 131.419 57.68 134.779 51.824C138.139 45.968 142.747 41.408 148.603 38.144C154.459 34.88 161.035 33.248 168.331 33.248C175.627 33.248 182.203 34.88 188.059 38.144C193.915 41.408 198.475 45.968 201.739 51.824C205.099 57.68 206.779 64.304 206.779 71.696C206.779 79.088 205.099 85.712 201.739 91.568C198.475 97.424 193.915 102.032 188.059 105.392C182.203 108.656 175.627 110.288 168.331 110.288ZM168.331 101.216C173.707 101.216 178.507 100.016 182.731 97.616C187.051 95.12 190.411 91.616 192.811 87.104C195.211 82.592 196.411 77.456 196.411 71.696C196.411 65.936 195.211 60.8 192.811 56.288C190.411 51.776 187.051 48.32 182.731 45.92C178.507 43.424 173.707 42.176 168.331 42.176C162.955 42.176 158.107 43.424 153.787 45.92C149.563 48.32 146.203 51.776 143.707 56.288C141.307 60.8 140.107 65.936 140.107 71.696C140.107 77.456 141.307 82.592 143.707 87.104C146.203 91.616 149.563 95.12 153.787 97.616C158.107 100.016 162.955 101.216 168.331 101.216Z" stroke="#A6A6A6" stroke-width="4" mask="url(#path-1-outside-1)"/>
<path d="M296.773 2.72V109.568H286.981V94.592C283.909 99.68 279.828 103.568 274.74 106.256C269.748 108.944 264.084 110.288 257.748 110.288C250.644 110.288 244.212 108.656 238.452 105.392C232.692 102.128 228.181 97.568 224.917 91.712C221.653 85.856 220.02 79.184 220.02 71.696C220.02 64.208 221.653 57.536 224.917 51.68C228.181 45.824 232.692 41.312 238.452 38.144C244.212 34.88 250.644 33.248 257.748 33.248C263.892 33.248 269.412 34.544 274.308 37.136C279.3 39.632 283.381 43.328 286.549 48.224V2.72H296.773ZM258.612 101.216C263.892 101.216 268.645 100.016 272.869 97.616C277.189 95.12 280.548 91.616 282.948 87.104C285.444 82.592 286.693 77.456 286.693 71.696C286.693 65.936 285.444 60.8 282.948 56.288C280.548 51.776 277.189 48.32 272.869 45.92C268.645 43.424 263.892 42.176 258.612 42.176C253.236 42.176 248.388 43.424 244.068 45.92C239.844 48.32 236.484 51.776 233.988 56.288C231.588 60.8 230.389 65.936 230.389 71.696C230.389 77.456 231.588 82.592 233.988 87.104C236.484 91.616 239.844 95.12 244.068 97.616C248.388 100.016 253.236 101.216 258.612 101.216Z" stroke="#A6A6A6" stroke-width="4" mask="url(#path-1-outside-1)"/>
<path d="M419.71 33.248C429.214 33.248 436.654 35.984 442.03 41.456C447.502 46.928 450.238 54.992 450.238 65.648V109.568H440.014V66.656C440.014 58.784 438.094 52.784 434.254 48.656C430.51 44.528 425.182 42.464 418.27 42.464C410.398 42.464 404.206 44.912 399.694 49.808C395.182 54.608 392.926 61.28 392.926 69.824V109.568H382.702V66.656C382.702 58.784 380.782 52.784 376.942 48.656C373.198 44.528 367.822 42.464 360.814 42.464C353.038 42.464 346.846 44.912 342.238 49.808C337.726 54.608 335.47 61.28 335.47 69.824V109.568H325.246V33.824H335.038V47.648C337.726 43.04 341.47 39.488 346.27 36.992C351.07 34.496 356.59 33.248 362.83 33.248C369.166 33.248 374.638 34.592 379.246 37.28C383.95 39.968 387.454 43.952 389.758 49.232C392.542 44.24 396.526 40.352 401.71 37.568C406.99 34.688 412.99 33.248 419.71 33.248Z" stroke="#A6A6A6" stroke-width="4" mask="url(#path-1-outside-1)"/>
<path d="M509.206 110.288C501.91 110.288 495.334 108.656 489.478 105.392C483.622 102.032 479.014 97.424 475.654 91.568C472.294 85.712 470.614 79.088 470.614 71.696C470.614 64.304 472.294 57.68 475.654 51.824C479.014 45.968 483.622 41.408 489.478 38.144C495.334 34.88 501.91 33.248 509.206 33.248C516.502 33.248 523.078 34.88 528.934 38.144C534.79 41.408 539.35 45.968 542.614 51.824C545.974 57.68 547.654 64.304 547.654 71.696C547.654 79.088 545.974 85.712 542.614 91.568C539.35 97.424 534.79 102.032 528.934 105.392C523.078 108.656 516.502 110.288 509.206 110.288ZM509.206 101.216C514.582 101.216 519.382 100.016 523.606 97.616C527.926 95.12 531.286 91.616 533.686 87.104C536.086 82.592 537.286 77.456 537.286 71.696C537.286 65.936 536.086 60.8 533.686 56.288C531.286 51.776 527.926 48.32 523.606 45.92C519.382 43.424 514.582 42.176 509.206 42.176C503.83 42.176 498.982 43.424 494.662 45.92C490.438 48.32 487.078 51.776 484.582 56.288C482.182 60.8 480.982 65.936 480.982 71.696C480.982 77.456 482.182 82.592 484.582 87.104C487.078 91.616 490.438 95.12 494.662 97.616C498.982 100.016 503.83 101.216 509.206 101.216Z" stroke="#A6A6A6" stroke-width="4" mask="url(#path-1-outside-1)"/>
<path d="M608.415 104.96C606.495 106.688 604.096 108.032 601.216 108.992C598.432 109.856 595.503 110.288 592.431 110.288C585.327 110.288 579.856 108.368 576.016 104.528C572.176 100.688 570.255 95.264 570.255 88.256V42.464H556.719V33.824H570.255V17.264H580.479V33.824H603.519V42.464H580.479V87.68C580.479 92.192 581.584 95.648 583.792 98.048C586.096 100.352 589.359 101.504 593.583 101.504C595.695 101.504 597.711 101.168 599.631 100.496C601.647 99.824 603.375 98.864 604.815 97.616L608.415 104.96Z" stroke="#A6A6A6" stroke-width="4" mask="url(#path-1-outside-1)"/>
<path d="M627.027 33.824H637.251V109.568H627.027V33.824ZM632.211 17.264C630.099 17.264 628.323 16.544 626.883 15.104C625.443 13.664 624.724 11.936 624.724 9.92C624.724 8 625.443 6.32 626.883 4.88C628.323 3.44 630.099 2.72 632.211 2.72C634.323 2.72 636.099 3.44 637.539 4.88C638.979 6.224 639.699 7.856 639.699 9.776C639.699 11.888 638.979 13.664 637.539 15.104C636.099 16.544 634.323 17.264 632.211 17.264Z" stroke="#A6A6A6" stroke-width="4" mask="url(#path-1-outside-1)"/>
<path d="M690.755 10.64C686.339 10.64 682.979 11.84 680.675 14.24C678.467 16.64 677.363 20.192 677.363 24.896V33.824H700.691V42.464H677.651V109.568H667.427V42.464H653.891V33.824H667.427V24.464C667.427 17.552 669.395 12.08 673.331 8.048C677.363 4.016 683.027 2 690.323 2C693.203 2 695.987 2.432 698.675 3.296C701.363 4.064 703.619 5.216 705.443 6.752L701.987 14.384C699.011 11.888 695.267 10.64 690.755 10.64Z" stroke="#A6A6A6" stroke-width="4" mask="url(#path-1-outside-1)"/>
</svg>
