<svg width="275" height="94" viewBox="0 0 275 94" fill="none" xmlns="http://www.w3.org/2000/svg" style="">
<mask id="path-1-outside-1" maskUnits="userSpaceOnUse" x="0" y="0" width="275" height="94" fill="black">
<path fill="white" width="275" height="94" d="M0 0 L275 0 L275 94 L0 94 Z" class="zOIXdZre_0"></path>
<path d="M35.023 4.1453V36.0966H31.798V10.5356L19.3064 32.0342H17.7166L5.22508 10.6725V36.0966H2V4.1453H4.77085L18.5797 27.8349L32.2522 4.1453H35.023Z" class="zOIXdZre_1"></path>
<path d="M54.4679 36.3248C52.1665 36.3248 50.0921 35.8075 48.2449 34.7729C46.3977 33.7079 44.9441 32.2472 43.8842 30.391C42.8243 28.5348 42.2944 26.4351 42.2944 24.0921C42.2944 21.749 42.8243 19.6493 43.8842 17.7931C44.9441 15.9369 46.3977 14.4914 48.2449 13.4568C50.0921 12.4222 52.1665 11.9049 54.4679 11.9049C56.7694 11.9049 58.8438 12.4222 60.691 13.4568C62.5382 14.4914 63.9766 15.9369 65.0062 17.7931C66.0661 19.6493 66.5961 21.749 66.5961 24.0921C66.5961 26.4351 66.0661 28.5348 65.0062 30.391C63.9766 32.2472 62.5382 33.7079 60.691 34.7729C58.8438 35.8075 56.7694 36.3248 54.4679 36.3248ZM54.4679 33.4492C56.1638 33.4492 57.6779 33.0688 59.0103 32.3081C60.373 31.5169 61.4329 30.4062 62.19 28.976C62.947 27.5458 63.3256 25.9178 63.3256 24.0921C63.3256 22.2663 62.947 20.6383 62.19 19.2081C61.4329 17.7779 60.373 16.6824 59.0103 15.9216C57.6779 15.1305 56.1638 14.7349 54.4679 14.7349C52.7721 14.7349 51.2429 15.1305 49.8801 15.9216C48.5477 16.6824 47.4878 17.7779 46.7005 19.2081C45.9434 20.6383 45.5649 22.2663 45.5649 24.0921C45.5649 25.9178 45.9434 27.5458 46.7005 28.976C47.4878 30.4062 48.5477 31.5169 49.8801 32.3081C51.2429 33.0688 52.7721 33.4492 54.4679 33.4492Z" class="zOIXdZre_2"></path>
<path d="M94.9838 2.22822V36.0966H91.895V31.3496C90.9259 32.9623 89.6389 34.1948 88.0339 35.0468C86.4592 35.8988 84.6726 36.3248 82.6739 36.3248C80.433 36.3248 78.4041 35.8075 76.5872 34.7729C74.7702 33.7383 73.3469 32.2929 72.3173 30.4367C71.2877 28.5805 70.7729 26.4656 70.7729 24.0921C70.7729 21.7185 71.2877 19.6037 72.3173 17.7474C73.3469 15.8912 74.7702 14.461 76.5872 13.4568C78.4041 12.4222 80.433 11.9049 82.6739 11.9049C84.612 11.9049 86.3533 12.3157 87.8977 13.1373C89.4724 13.9285 90.7594 15.1 91.7587 16.652V2.22822H94.9838ZM82.9465 33.4492C84.612 33.4492 86.111 33.0688 87.4434 32.3081C88.8061 31.5169 89.866 30.4062 90.6231 28.976C91.4104 27.5458 91.8041 25.9178 91.8041 24.0921C91.8041 22.2663 91.4104 20.6383 90.6231 19.2081C89.866 17.7779 88.8061 16.6824 87.4434 15.9216C86.111 15.1305 84.612 14.7349 82.9465 14.7349C81.2507 14.7349 79.7214 15.1305 78.3587 15.9216C77.0263 16.6824 75.9664 17.7779 75.179 19.2081C74.422 20.6383 74.0434 22.2663 74.0434 24.0921C74.0434 25.9178 74.422 27.5458 75.179 28.976C75.9664 30.4062 77.0263 31.5169 78.3587 32.3081C79.7214 33.0688 81.2507 33.4492 82.9465 33.4492Z" class="zOIXdZre_3"></path>
<path d="M133.764 11.9049C136.762 11.9049 139.108 12.7722 140.804 14.5067C142.53 16.2412 143.393 18.7973 143.393 22.175V36.0966H140.168V22.4945C140.168 19.9992 139.563 18.0974 138.351 16.7889C137.17 15.4804 135.49 14.8262 133.309 14.8262C130.826 14.8262 128.873 15.6021 127.45 17.154C126.026 18.6755 125.315 20.7904 125.315 23.4987V36.0966H122.09V22.4945C122.09 19.9992 121.484 18.0974 120.273 16.7889C119.092 15.4804 117.396 14.8262 115.185 14.8262C112.732 14.8262 110.779 15.6021 109.326 17.154C107.902 18.6755 107.191 20.7904 107.191 23.4987V36.0966H103.966V12.0875H107.054V16.4694C107.902 15.0087 109.083 13.8828 110.597 13.0917C112.112 12.3005 113.853 11.9049 115.821 11.9049C117.82 11.9049 119.546 12.3309 120.999 13.183C122.483 14.035 123.589 15.2978 124.315 16.9715C125.194 15.3891 126.45 14.1567 128.086 13.2742C129.751 12.3614 131.644 11.9049 133.764 11.9049Z" class="zOIXdZre_4"></path>
<path d="M161.994 36.3248C159.693 36.3248 157.619 35.8075 155.771 34.7729C153.924 33.7079 152.471 32.2472 151.411 30.391C150.351 28.5348 149.821 26.4351 149.821 24.0921C149.821 21.749 150.351 19.6493 151.411 17.7931C152.471 15.9369 153.924 14.4914 155.771 13.4568C157.619 12.4222 159.693 11.9049 161.994 11.9049C164.296 11.9049 166.37 12.4222 168.217 13.4568C170.065 14.4914 171.503 15.9369 172.533 17.7931C173.593 19.6493 174.123 21.749 174.123 24.0921C174.123 26.4351 173.593 28.5348 172.533 30.391C171.503 32.2472 170.065 33.7079 168.217 34.7729C166.37 35.8075 164.296 36.3248 161.994 36.3248ZM161.994 33.4492C163.69 33.4492 165.204 33.0688 166.537 32.3081C167.899 31.5169 168.959 30.4062 169.716 28.976C170.473 27.5458 170.852 25.9178 170.852 24.0921C170.852 22.2663 170.473 20.6383 169.716 19.2081C168.959 17.7779 167.899 16.6824 166.537 15.9216C165.204 15.1305 163.69 14.7349 161.994 14.7349C160.299 14.7349 158.769 15.1305 157.407 15.9216C156.074 16.6824 155.014 17.7779 154.227 19.2081C153.47 20.6383 153.091 22.2663 153.091 24.0921C153.091 25.9178 153.47 27.5458 154.227 28.976C155.014 30.4062 156.074 31.5169 157.407 32.3081C158.769 33.0688 160.299 33.4492 161.994 33.4492Z" class="zOIXdZre_5"></path>
<path d="M193.289 34.636C192.684 35.1837 191.926 35.6097 191.018 35.914C190.14 36.1879 189.216 36.3248 188.247 36.3248C186.006 36.3248 184.28 35.7162 183.069 34.499C181.858 33.2819 181.252 31.5626 181.252 29.3412V14.8262H176.982V12.0875H181.252V6.83834H184.477V12.0875H191.745V14.8262H184.477V29.1586C184.477 30.5888 184.825 31.6843 185.522 32.445C186.249 33.1754 187.278 33.5405 188.611 33.5405C189.277 33.5405 189.913 33.434 190.518 33.221C191.154 33.008 191.699 32.7037 192.154 32.3081L193.289 34.636Z" class="zOIXdZre_6"></path>
<path d="M199.16 12.0875H202.385V36.0966H199.16V12.0875ZM200.795 6.83834C200.129 6.83834 199.569 6.61012 199.115 6.15367C198.661 5.69722 198.433 5.14949 198.433 4.51046C198.433 3.90186 198.661 3.36934 199.115 2.91289C199.569 2.45645 200.129 2.22822 200.795 2.22822C201.462 2.22822 202.022 2.45645 202.476 2.91289C202.93 3.33891 203.157 3.85622 203.157 4.46482C203.157 5.13427 202.93 5.69722 202.476 6.15367C202.022 6.61012 201.462 6.83834 200.795 6.83834Z" class="zOIXdZre_7"></path>
<path d="M219.263 4.73868C217.87 4.73868 216.81 5.11906 216.083 5.8798C215.387 6.64055 215.038 7.76645 215.038 9.25751V12.0875H222.397V14.8262H215.129V36.0966H211.904V14.8262H207.634V12.0875H211.904V9.12058C211.904 6.92963 212.525 5.19513 213.766 3.91708C215.038 2.63903 216.825 2 219.126 2C220.035 2 220.913 2.13693 221.761 2.4108C222.609 2.65424 223.321 3.0194 223.896 3.50628L222.806 5.92545C221.867 5.13427 220.686 4.73868 219.263 4.73868Z" class="zOIXdZre_8"></path>
<path d="M117.761 92C115.399 92 113.128 91.6196 110.947 90.8589C108.797 90.0981 107.132 89.0939 105.951 87.8463L107.268 85.2446C108.419 86.4009 109.948 87.3442 111.856 88.0745C113.764 88.7744 115.732 89.1244 117.761 89.1244C120.607 89.1244 122.742 88.6071 124.166 87.5725C125.589 86.5074 126.301 85.1381 126.301 83.4644C126.301 82.1864 125.907 81.167 125.12 80.4062C124.362 79.6455 123.424 79.0673 122.303 78.6717C121.183 78.2457 119.623 77.7893 117.625 77.3024C115.232 76.6938 113.325 76.1156 111.901 75.5679C110.478 74.9897 109.252 74.1225 108.222 72.9661C107.223 71.8098 106.723 70.2427 106.723 68.2647C106.723 66.652 107.147 65.1913 107.995 63.8828C108.843 62.5439 110.145 61.4789 111.901 60.6877C113.658 59.8965 115.838 59.5009 118.442 59.5009C120.259 59.5009 122.031 59.7596 123.757 60.2769C125.513 60.7638 127.027 61.4485 128.299 62.3309L127.164 65.024C125.831 64.1415 124.408 63.4873 122.894 63.0612C121.38 62.6048 119.896 62.3766 118.442 62.3766C115.656 62.3766 113.552 62.9243 112.128 64.0198C110.735 65.0848 110.039 66.4694 110.039 68.1734C110.039 69.4515 110.417 70.4861 111.174 71.2773C111.962 72.038 112.931 72.6314 114.082 73.0574C115.263 73.453 116.837 73.8943 118.806 74.3811C121.137 74.9593 123.015 75.5375 124.438 76.1156C125.892 76.6634 127.118 77.5154 128.118 78.6717C129.117 79.7976 129.617 81.3343 129.617 83.2819C129.617 84.8946 129.177 86.3705 128.299 87.7094C127.451 89.0179 126.134 90.0677 124.347 90.8589C122.561 91.6196 120.365 92 117.761 92Z" class="zOIXdZre_9"></path>
<path d="M148.841 90.2655C148.236 90.8132 147.479 91.2392 146.57 91.5435C145.692 91.8174 144.768 91.9543 143.799 91.9543C141.558 91.9543 139.832 91.3458 138.621 90.1286C137.41 88.9114 136.804 87.1921 136.804 84.9707V70.4557H132.534V67.717H136.804V62.4679H140.029V67.717H147.297V70.4557H140.029V84.7881C140.029 86.2183 140.377 87.3138 141.074 88.0745C141.801 88.8049 142.83 89.17 144.163 89.17C144.829 89.17 145.465 89.0635 146.071 88.8505C146.706 88.6375 147.252 88.3332 147.706 87.9376L148.841 90.2655Z" class="zOIXdZre_10"></path>
<path d="M176.243 67.717V91.7261H173.154V87.3442C172.307 88.8049 171.141 89.946 169.657 90.7676C168.173 91.5588 166.477 91.9543 164.569 91.9543C161.45 91.9543 158.982 91.0871 157.165 89.3526C155.379 87.5877 154.485 85.0164 154.485 81.6386V67.717H157.71V81.3191C157.71 83.8448 158.331 85.7619 159.573 87.0704C160.814 88.3788 162.586 89.0331 164.887 89.0331C167.401 89.0331 169.384 88.2723 170.838 86.7509C172.291 85.1989 173.018 83.0536 173.018 80.3149V67.717H176.243Z" class="zOIXdZre_11"></path>
<path d="M207.079 57.8577V91.7261H203.99V86.9791C203.021 88.5919 201.734 89.8243 200.129 90.6763C198.555 91.5283 196.768 91.9543 194.769 91.9543C192.528 91.9543 190.5 91.437 188.683 90.4024C186.866 89.3678 185.442 87.9224 184.413 86.0662C183.383 84.21 182.868 82.0951 182.868 79.7216C182.868 77.348 183.383 75.2332 184.413 73.3769C185.442 71.5207 186.866 70.0905 188.683 69.0863C190.5 68.0517 192.528 67.5344 194.769 67.5344C196.707 67.5344 198.449 67.9452 199.993 68.7668C201.568 69.558 202.855 70.7296 203.854 72.2815V57.8577H207.079ZM195.042 89.0787C196.707 89.0787 198.206 88.6984 199.539 87.9376C200.902 87.1464 201.961 86.0358 202.719 84.6056C203.506 83.1753 203.9 81.5474 203.9 79.7216C203.9 77.8958 203.506 76.2678 202.719 74.8376C201.961 73.4074 200.902 72.3119 199.539 71.5512C198.206 70.76 196.707 70.3644 195.042 70.3644C193.346 70.3644 191.817 70.76 190.454 71.5512C189.122 72.3119 188.062 73.4074 187.274 74.8376C186.517 76.2678 186.139 77.8958 186.139 79.7216C186.139 81.5474 186.517 83.1753 187.274 84.6056C188.062 86.0358 189.122 87.1464 190.454 87.9376C191.817 88.6984 193.346 89.0787 195.042 89.0787Z" class="zOIXdZre_12"></path>
<path d="M216.061 67.717H219.286V91.7261H216.061V67.717ZM217.696 62.4679C217.03 62.4679 216.47 62.2396 216.016 61.7832C215.561 61.3267 215.334 60.779 215.334 60.14C215.334 59.5314 215.561 58.9989 216.016 58.5424C216.47 58.086 217.03 57.8577 217.696 57.8577C218.362 57.8577 218.923 58.086 219.377 58.5424C219.831 58.9684 220.058 59.4857 220.058 60.0943C220.058 60.7638 219.831 61.3267 219.377 61.7832C218.923 62.2396 218.362 62.4679 217.696 62.4679Z" class="zOIXdZre_13"></path>
<path d="M238.026 91.9543C235.724 91.9543 233.65 91.437 231.803 90.4024C229.956 89.3374 228.502 87.8768 227.442 86.0205C226.382 84.1643 225.852 82.0647 225.852 79.7216C225.852 77.3785 226.382 75.2788 227.442 73.4226C228.502 71.5664 229.956 70.121 231.803 69.0863C233.65 68.0517 235.724 67.5344 238.026 67.5344C240.327 67.5344 242.402 68.0517 244.249 69.0863C246.096 70.121 247.535 71.5664 248.564 73.4226C249.624 75.2788 250.154 77.3785 250.154 79.7216C250.154 82.0647 249.624 84.1643 248.564 86.0205C247.535 87.8768 246.096 89.3374 244.249 90.4024C242.402 91.437 240.327 91.9543 238.026 91.9543ZM238.026 89.0787C239.722 89.0787 241.236 88.6984 242.568 87.9376C243.931 87.1464 244.991 86.0358 245.748 84.6056C246.505 83.1753 246.884 81.5474 246.884 79.7216C246.884 77.8958 246.505 76.2678 245.748 74.8376C244.991 73.4074 243.931 72.3119 242.568 71.5512C241.236 70.76 239.722 70.3644 238.026 70.3644C236.33 70.3644 234.801 70.76 233.438 71.5512C232.106 72.3119 231.046 73.4074 230.258 74.8376C229.501 76.2678 229.123 77.8958 229.123 79.7216C229.123 81.5474 229.501 83.1753 230.258 84.6056C231.046 86.0358 232.106 87.1464 233.438 87.9376C234.801 88.6984 236.33 89.0787 238.026 89.0787Z" class="zOIXdZre_14"></path>
<path d="M263.143 91.9543C261.205 91.9543 259.343 91.6805 257.556 91.1327C255.8 90.5546 254.422 89.8395 253.422 88.9874L254.876 86.4313C255.875 87.2225 257.132 87.8768 258.646 88.3941C260.16 88.8809 261.735 89.1244 263.37 89.1244C265.551 89.1244 267.155 88.7897 268.185 88.1202C269.245 87.4203 269.775 86.4466 269.775 85.1989C269.775 84.3165 269.487 83.6318 268.912 83.1449C268.336 82.6276 267.61 82.2472 266.732 82.0038C265.853 81.7299 264.687 81.4713 263.234 81.2278C261.296 80.8627 259.736 80.4975 258.555 80.1324C257.374 79.7368 256.36 79.0825 255.512 78.1696C254.694 77.2567 254.285 75.9939 254.285 74.3811C254.285 72.3728 255.118 70.7296 256.784 69.4515C258.449 68.1734 260.766 67.5344 263.734 67.5344C265.278 67.5344 266.822 67.7474 268.367 68.1734C269.911 68.569 271.183 69.1016 272.182 69.771L270.774 72.3728C268.806 71.0034 266.459 70.3187 263.734 70.3187C261.674 70.3187 260.115 70.6839 259.055 71.4142C258.025 72.1445 257.511 73.1031 257.511 74.2898C257.511 75.2027 257.798 75.9331 258.374 76.4808C258.979 77.0285 259.721 77.4393 260.599 77.7132C261.478 77.9566 262.689 78.2153 264.233 78.4892C266.141 78.8543 267.67 79.2195 268.821 79.5846C269.972 79.9498 270.956 80.5736 271.774 81.4561C272.591 82.3385 273 83.5557 273 85.1076C273 87.2073 272.122 88.8809 270.365 90.1286C268.639 91.3458 266.232 91.9543 263.143 91.9543Z" class="zOIXdZre_15"></path>
</mask>
<path d="M35.023 4.1453V36.0966H31.798V10.5356L19.3064 32.0342H17.7166L5.22508 10.6725V36.0966H2V4.1453H4.77085L18.5797 27.8349L32.2522 4.1453H35.023Z" stroke="#515151" stroke-width="2.5" mask="url(#path-1-outside-1)" class="zOIXdZre_16"></path>
<path d="M54.4679 36.3248C52.1665 36.3248 50.0921 35.8075 48.2449 34.7729C46.3977 33.7079 44.9441 32.2472 43.8842 30.391C42.8243 28.5348 42.2944 26.4351 42.2944 24.0921C42.2944 21.749 42.8243 19.6493 43.8842 17.7931C44.9441 15.9369 46.3977 14.4914 48.2449 13.4568C50.0921 12.4222 52.1665 11.9049 54.4679 11.9049C56.7694 11.9049 58.8438 12.4222 60.691 13.4568C62.5382 14.4914 63.9766 15.9369 65.0062 17.7931C66.0661 19.6493 66.5961 21.749 66.5961 24.0921C66.5961 26.4351 66.0661 28.5348 65.0062 30.391C63.9766 32.2472 62.5382 33.7079 60.691 34.7729C58.8438 35.8075 56.7694 36.3248 54.4679 36.3248ZM54.4679 33.4492C56.1638 33.4492 57.6779 33.0688 59.0103 32.3081C60.373 31.5169 61.4329 30.4062 62.19 28.976C62.947 27.5458 63.3256 25.9178 63.3256 24.0921C63.3256 22.2663 62.947 20.6383 62.19 19.2081C61.4329 17.7779 60.373 16.6824 59.0103 15.9216C57.6779 15.1305 56.1638 14.7349 54.4679 14.7349C52.7721 14.7349 51.2429 15.1305 49.8801 15.9216C48.5477 16.6824 47.4878 17.7779 46.7005 19.2081C45.9434 20.6383 45.5649 22.2663 45.5649 24.0921C45.5649 25.9178 45.9434 27.5458 46.7005 28.976C47.4878 30.4062 48.5477 31.5169 49.8801 32.3081C51.2429 33.0688 52.7721 33.4492 54.4679 33.4492Z" stroke="#515151" stroke-width="2.5" mask="url(#path-1-outside-1)" class="zOIXdZre_17"></path>
<path d="M94.9838 2.22822V36.0966H91.895V31.3496C90.9259 32.9623 89.6389 34.1948 88.0339 35.0468C86.4592 35.8988 84.6726 36.3248 82.6739 36.3248C80.433 36.3248 78.4041 35.8075 76.5872 34.7729C74.7702 33.7383 73.3469 32.2929 72.3173 30.4367C71.2877 28.5805 70.7729 26.4656 70.7729 24.0921C70.7729 21.7185 71.2877 19.6037 72.3173 17.7474C73.3469 15.8912 74.7702 14.461 76.5872 13.4568C78.4041 12.4222 80.433 11.9049 82.6739 11.9049C84.612 11.9049 86.3533 12.3157 87.8977 13.1373C89.4724 13.9285 90.7594 15.1 91.7587 16.652V2.22822H94.9838ZM82.9465 33.4492C84.612 33.4492 86.111 33.0688 87.4434 32.3081C88.8061 31.5169 89.866 30.4062 90.6231 28.976C91.4104 27.5458 91.8041 25.9178 91.8041 24.0921C91.8041 22.2663 91.4104 20.6383 90.6231 19.2081C89.866 17.7779 88.8061 16.6824 87.4434 15.9216C86.111 15.1305 84.612 14.7349 82.9465 14.7349C81.2507 14.7349 79.7214 15.1305 78.3587 15.9216C77.0263 16.6824 75.9664 17.7779 75.179 19.2081C74.422 20.6383 74.0434 22.2663 74.0434 24.0921C74.0434 25.9178 74.422 27.5458 75.179 28.976C75.9664 30.4062 77.0263 31.5169 78.3587 32.3081C79.7214 33.0688 81.2507 33.4492 82.9465 33.4492Z" stroke="#515151" stroke-width="2.5" mask="url(#path-1-outside-1)" class="zOIXdZre_18"></path>
<path d="M133.764 11.9049C136.762 11.9049 139.108 12.7722 140.804 14.5067C142.53 16.2412 143.393 18.7973 143.393 22.175V36.0966H140.168V22.4945C140.168 19.9992 139.563 18.0974 138.351 16.7889C137.17 15.4804 135.49 14.8262 133.309 14.8262C130.826 14.8262 128.873 15.6021 127.45 17.154C126.026 18.6755 125.315 20.7904 125.315 23.4987V36.0966H122.09V22.4945C122.09 19.9992 121.484 18.0974 120.273 16.7889C119.092 15.4804 117.396 14.8262 115.185 14.8262C112.732 14.8262 110.779 15.6021 109.326 17.154C107.902 18.6755 107.191 20.7904 107.191 23.4987V36.0966H103.966V12.0875H107.054V16.4694C107.902 15.0087 109.083 13.8828 110.597 13.0917C112.112 12.3005 113.853 11.9049 115.821 11.9049C117.82 11.9049 119.546 12.3309 120.999 13.183C122.483 14.035 123.589 15.2978 124.315 16.9715C125.194 15.3891 126.45 14.1567 128.086 13.2742C129.751 12.3614 131.644 11.9049 133.764 11.9049Z" stroke="#515151" stroke-width="2.5" mask="url(#path-1-outside-1)" class="zOIXdZre_19"></path>
<path d="M161.994 36.3248C159.693 36.3248 157.619 35.8075 155.771 34.7729C153.924 33.7079 152.471 32.2472 151.411 30.391C150.351 28.5348 149.821 26.4351 149.821 24.0921C149.821 21.749 150.351 19.6493 151.411 17.7931C152.471 15.9369 153.924 14.4914 155.771 13.4568C157.619 12.4222 159.693 11.9049 161.994 11.9049C164.296 11.9049 166.37 12.4222 168.217 13.4568C170.065 14.4914 171.503 15.9369 172.533 17.7931C173.593 19.6493 174.123 21.749 174.123 24.0921C174.123 26.4351 173.593 28.5348 172.533 30.391C171.503 32.2472 170.065 33.7079 168.217 34.7729C166.37 35.8075 164.296 36.3248 161.994 36.3248ZM161.994 33.4492C163.69 33.4492 165.204 33.0688 166.537 32.3081C167.899 31.5169 168.959 30.4062 169.716 28.976C170.473 27.5458 170.852 25.9178 170.852 24.0921C170.852 22.2663 170.473 20.6383 169.716 19.2081C168.959 17.7779 167.899 16.6824 166.537 15.9216C165.204 15.1305 163.69 14.7349 161.994 14.7349C160.299 14.7349 158.769 15.1305 157.407 15.9216C156.074 16.6824 155.014 17.7779 154.227 19.2081C153.47 20.6383 153.091 22.2663 153.091 24.0921C153.091 25.9178 153.47 27.5458 154.227 28.976C155.014 30.4062 156.074 31.5169 157.407 32.3081C158.769 33.0688 160.299 33.4492 161.994 33.4492Z" stroke="#515151" stroke-width="2.5" mask="url(#path-1-outside-1)" class="zOIXdZre_20"></path>
<path d="M193.289 34.636C192.684 35.1837 191.926 35.6097 191.018 35.914C190.14 36.1879 189.216 36.3248 188.247 36.3248C186.006 36.3248 184.28 35.7162 183.069 34.499C181.858 33.2819 181.252 31.5626 181.252 29.3412V14.8262H176.982V12.0875H181.252V6.83834H184.477V12.0875H191.745V14.8262H184.477V29.1586C184.477 30.5888 184.825 31.6843 185.522 32.445C186.249 33.1754 187.278 33.5405 188.611 33.5405C189.277 33.5405 189.913 33.434 190.518 33.221C191.154 33.008 191.699 32.7037 192.154 32.3081L193.289 34.636Z" stroke="#515151" stroke-width="2.5" mask="url(#path-1-outside-1)" class="zOIXdZre_21"></path>
<path d="M199.16 12.0875H202.385V36.0966H199.16V12.0875ZM200.795 6.83834C200.129 6.83834 199.569 6.61012 199.115 6.15367C198.661 5.69722 198.433 5.14949 198.433 4.51046C198.433 3.90186 198.661 3.36934 199.115 2.91289C199.569 2.45645 200.129 2.22822 200.795 2.22822C201.462 2.22822 202.022 2.45645 202.476 2.91289C202.93 3.33891 203.157 3.85622 203.157 4.46482C203.157 5.13427 202.93 5.69722 202.476 6.15367C202.022 6.61012 201.462 6.83834 200.795 6.83834Z" stroke="#515151" stroke-width="2.5" mask="url(#path-1-outside-1)" class="zOIXdZre_22"></path>
<path d="M219.263 4.73868C217.87 4.73868 216.81 5.11906 216.083 5.8798C215.387 6.64055 215.038 7.76645 215.038 9.25751V12.0875H222.397V14.8262H215.129V36.0966H211.904V14.8262H207.634V12.0875H211.904V9.12058C211.904 6.92963 212.525 5.19513 213.766 3.91708C215.038 2.63903 216.825 2 219.126 2C220.035 2 220.913 2.13693 221.761 2.4108C222.609 2.65424 223.321 3.0194 223.896 3.50628L222.806 5.92545C221.867 5.13427 220.686 4.73868 219.263 4.73868Z" stroke="#515151" stroke-width="2.5" mask="url(#path-1-outside-1)" class="zOIXdZre_23"></path>
<path d="M117.761 92C115.399 92 113.128 91.6196 110.947 90.8589C108.797 90.0981 107.132 89.0939 105.951 87.8463L107.268 85.2446C108.419 86.4009 109.948 87.3442 111.856 88.0745C113.764 88.7744 115.732 89.1244 117.761 89.1244C120.607 89.1244 122.742 88.6071 124.166 87.5725C125.589 86.5074 126.301 85.1381 126.301 83.4644C126.301 82.1864 125.907 81.167 125.12 80.4062C124.362 79.6455 123.424 79.0673 122.303 78.6717C121.183 78.2457 119.623 77.7893 117.625 77.3024C115.232 76.6938 113.325 76.1156 111.901 75.5679C110.478 74.9897 109.252 74.1225 108.222 72.9661C107.223 71.8098 106.723 70.2427 106.723 68.2647C106.723 66.652 107.147 65.1913 107.995 63.8828C108.843 62.5439 110.145 61.4789 111.901 60.6877C113.658 59.8965 115.838 59.5009 118.442 59.5009C120.259 59.5009 122.031 59.7596 123.757 60.2769C125.513 60.7638 127.027 61.4485 128.299 62.3309L127.164 65.024C125.831 64.1415 124.408 63.4873 122.894 63.0612C121.38 62.6048 119.896 62.3766 118.442 62.3766C115.656 62.3766 113.552 62.9243 112.128 64.0198C110.735 65.0848 110.039 66.4694 110.039 68.1734C110.039 69.4515 110.417 70.4861 111.174 71.2773C111.962 72.038 112.931 72.6314 114.082 73.0574C115.263 73.453 116.837 73.8943 118.806 74.3811C121.137 74.9593 123.015 75.5375 124.438 76.1156C125.892 76.6634 127.118 77.5154 128.118 78.6717C129.117 79.7976 129.617 81.3343 129.617 83.2819C129.617 84.8946 129.177 86.3705 128.299 87.7094C127.451 89.0179 126.134 90.0677 124.347 90.8589C122.561 91.6196 120.365 92 117.761 92Z" stroke="#515151" stroke-width="2.5" mask="url(#path-1-outside-1)" class="zOIXdZre_24"></path>
<path d="M148.841 90.2655C148.236 90.8132 147.479 91.2392 146.57 91.5435C145.692 91.8174 144.768 91.9543 143.799 91.9543C141.558 91.9543 139.832 91.3458 138.621 90.1286C137.41 88.9114 136.804 87.1921 136.804 84.9707V70.4557H132.534V67.717H136.804V62.4679H140.029V67.717H147.297V70.4557H140.029V84.7881C140.029 86.2183 140.377 87.3138 141.074 88.0745C141.801 88.8049 142.83 89.17 144.163 89.17C144.829 89.17 145.465 89.0635 146.071 88.8505C146.706 88.6375 147.252 88.3332 147.706 87.9376L148.841 90.2655Z" stroke="#515151" stroke-width="2.5" mask="url(#path-1-outside-1)" class="zOIXdZre_25"></path>
<path d="M176.243 67.717V91.7261H173.154V87.3442C172.307 88.8049 171.141 89.946 169.657 90.7676C168.173 91.5588 166.477 91.9543 164.569 91.9543C161.45 91.9543 158.982 91.0871 157.165 89.3526C155.379 87.5877 154.485 85.0164 154.485 81.6386V67.717H157.71V81.3191C157.71 83.8448 158.331 85.7619 159.573 87.0704C160.814 88.3788 162.586 89.0331 164.887 89.0331C167.401 89.0331 169.384 88.2723 170.838 86.7509C172.291 85.1989 173.018 83.0536 173.018 80.3149V67.717H176.243Z" stroke="#515151" stroke-width="2.5" mask="url(#path-1-outside-1)" class="zOIXdZre_26"></path>
<path d="M207.079 57.8577V91.7261H203.99V86.9791C203.021 88.5919 201.734 89.8243 200.129 90.6763C198.555 91.5283 196.768 91.9543 194.769 91.9543C192.528 91.9543 190.5 91.437 188.683 90.4024C186.866 89.3678 185.442 87.9224 184.413 86.0662C183.383 84.21 182.868 82.0951 182.868 79.7216C182.868 77.348 183.383 75.2332 184.413 73.3769C185.442 71.5207 186.866 70.0905 188.683 69.0863C190.5 68.0517 192.528 67.5344 194.769 67.5344C196.707 67.5344 198.449 67.9452 199.993 68.7668C201.568 69.558 202.855 70.7296 203.854 72.2815V57.8577H207.079ZM195.042 89.0787C196.707 89.0787 198.206 88.6984 199.539 87.9376C200.902 87.1464 201.961 86.0358 202.719 84.6056C203.506 83.1753 203.9 81.5474 203.9 79.7216C203.9 77.8958 203.506 76.2678 202.719 74.8376C201.961 73.4074 200.902 72.3119 199.539 71.5512C198.206 70.76 196.707 70.3644 195.042 70.3644C193.346 70.3644 191.817 70.76 190.454 71.5512C189.122 72.3119 188.062 73.4074 187.274 74.8376C186.517 76.2678 186.139 77.8958 186.139 79.7216C186.139 81.5474 186.517 83.1753 187.274 84.6056C188.062 86.0358 189.122 87.1464 190.454 87.9376C191.817 88.6984 193.346 89.0787 195.042 89.0787Z" stroke="#515151" stroke-width="2.5" mask="url(#path-1-outside-1)" class="zOIXdZre_27"></path>
<path d="M216.061 67.717H219.286V91.7261H216.061V67.717ZM217.696 62.4679C217.03 62.4679 216.47 62.2396 216.016 61.7832C215.561 61.3267 215.334 60.779 215.334 60.14C215.334 59.5314 215.561 58.9989 216.016 58.5424C216.47 58.086 217.03 57.8577 217.696 57.8577C218.362 57.8577 218.923 58.086 219.377 58.5424C219.831 58.9684 220.058 59.4857 220.058 60.0943C220.058 60.7638 219.831 61.3267 219.377 61.7832C218.923 62.2396 218.362 62.4679 217.696 62.4679Z" stroke="#515151" stroke-width="2.5" mask="url(#path-1-outside-1)" class="zOIXdZre_28"></path>
<path d="M238.026 91.9543C235.724 91.9543 233.65 91.437 231.803 90.4024C229.956 89.3374 228.502 87.8768 227.442 86.0205C226.382 84.1643 225.852 82.0647 225.852 79.7216C225.852 77.3785 226.382 75.2788 227.442 73.4226C228.502 71.5664 229.956 70.121 231.803 69.0863C233.65 68.0517 235.724 67.5344 238.026 67.5344C240.327 67.5344 242.402 68.0517 244.249 69.0863C246.096 70.121 247.535 71.5664 248.564 73.4226C249.624 75.2788 250.154 77.3785 250.154 79.7216C250.154 82.0647 249.624 84.1643 248.564 86.0205C247.535 87.8768 246.096 89.3374 244.249 90.4024C242.402 91.437 240.327 91.9543 238.026 91.9543ZM238.026 89.0787C239.722 89.0787 241.236 88.6984 242.568 87.9376C243.931 87.1464 244.991 86.0358 245.748 84.6056C246.505 83.1753 246.884 81.5474 246.884 79.7216C246.884 77.8958 246.505 76.2678 245.748 74.8376C244.991 73.4074 243.931 72.3119 242.568 71.5512C241.236 70.76 239.722 70.3644 238.026 70.3644C236.33 70.3644 234.801 70.76 233.438 71.5512C232.106 72.3119 231.046 73.4074 230.258 74.8376C229.501 76.2678 229.123 77.8958 229.123 79.7216C229.123 81.5474 229.501 83.1753 230.258 84.6056C231.046 86.0358 232.106 87.1464 233.438 87.9376C234.801 88.6984 236.33 89.0787 238.026 89.0787Z" stroke="#515151" stroke-width="2.5" mask="url(#path-1-outside-1)" class="zOIXdZre_29"></path>
<path d="M263.143 91.9543C261.205 91.9543 259.343 91.6805 257.556 91.1327C255.8 90.5546 254.422 89.8395 253.422 88.9874L254.876 86.4313C255.875 87.2225 257.132 87.8768 258.646 88.3941C260.16 88.8809 261.735 89.1244 263.37 89.1244C265.551 89.1244 267.155 88.7897 268.185 88.1202C269.245 87.4203 269.775 86.4466 269.775 85.1989C269.775 84.3165 269.487 83.6318 268.912 83.1449C268.336 82.6276 267.61 82.2472 266.732 82.0038C265.853 81.7299 264.687 81.4713 263.234 81.2278C261.296 80.8627 259.736 80.4975 258.555 80.1324C257.374 79.7368 256.36 79.0825 255.512 78.1696C254.694 77.2567 254.285 75.9939 254.285 74.3811C254.285 72.3728 255.118 70.7296 256.784 69.4515C258.449 68.1734 260.766 67.5344 263.734 67.5344C265.278 67.5344 266.822 67.7474 268.367 68.1734C269.911 68.569 271.183 69.1016 272.182 69.771L270.774 72.3728C268.806 71.0034 266.459 70.3187 263.734 70.3187C261.674 70.3187 260.115 70.6839 259.055 71.4142C258.025 72.1445 257.511 73.1031 257.511 74.2898C257.511 75.2027 257.798 75.9331 258.374 76.4808C258.979 77.0285 259.721 77.4393 260.599 77.7132C261.478 77.9566 262.689 78.2153 264.233 78.4892C266.141 78.8543 267.67 79.2195 268.821 79.5846C269.972 79.9498 270.956 80.5736 271.774 81.4561C272.591 82.3385 273 83.5557 273 85.1076C273 87.2073 272.122 88.8809 270.365 90.1286C268.639 91.3458 266.232 91.9543 263.143 91.9543Z" stroke="#515151" stroke-width="2.5" mask="url(#path-1-outside-1)" class="zOIXdZre_30"></path>
<style data-made-with="vivus-instant">.zOIXdZre_0{stroke-dasharray:738 740;stroke-dashoffset:739;animation:zOIXdZre_draw 2500ms linear 0ms forwards;}.zOIXdZre_1{stroke-dasharray:233 235;stroke-dashoffset:234;animation:zOIXdZre_draw 2500ms linear 50ms forwards;}.zOIXdZre_2{stroke-dasharray:136 138;stroke-dashoffset:137;animation:zOIXdZre_draw 2500ms linear 100ms forwards;}.zOIXdZre_3{stroke-dasharray:178 180;stroke-dashoffset:179;animation:zOIXdZre_draw 2500ms linear 150ms forwards;}.zOIXdZre_4{stroke-dasharray:206 208;stroke-dashoffset:207;animation:zOIXdZre_draw 2500ms linear 200ms forwards;}.zOIXdZre_5{stroke-dasharray:136 138;stroke-dashoffset:137;animation:zOIXdZre_draw 2500ms linear 250ms forwards;}.zOIXdZre_6{stroke-dasharray:102 104;stroke-dashoffset:103;animation:zOIXdZre_draw 2500ms linear 300ms forwards;}.zOIXdZre_7{stroke-dasharray:70 72;stroke-dashoffset:71;animation:zOIXdZre_draw 2500ms linear 350ms forwards;}.zOIXdZre_8{stroke-dasharray:111 113;stroke-dashoffset:112;animation:zOIXdZre_draw 2500ms linear 400ms forwards;}.zOIXdZre_9{stroke-dasharray:161 163;stroke-dashoffset:162;animation:zOIXdZre_draw 2500ms linear 450ms forwards;}.zOIXdZre_10{stroke-dasharray:102 104;stroke-dashoffset:103;animation:zOIXdZre_draw 2500ms linear 500ms forwards;}.zOIXdZre_11{stroke-dasharray:131 133;stroke-dashoffset:132;animation:zOIXdZre_draw 2500ms linear 550ms forwards;}.zOIXdZre_12{stroke-dasharray:178 180;stroke-dashoffset:179;animation:zOIXdZre_draw 2500ms linear 600ms forwards;}.zOIXdZre_13{stroke-dasharray:70 72;stroke-dashoffset:71;animation:zOIXdZre_draw 2500ms linear 650ms forwards;}.zOIXdZre_14{stroke-dasharray:136 138;stroke-dashoffset:137;animation:zOIXdZre_draw 2500ms linear 700ms forwards;}.zOIXdZre_15{stroke-dasharray:127 129;stroke-dashoffset:128;animation:zOIXdZre_draw 2500ms linear 750ms forwards;}.zOIXdZre_16{stroke-dasharray:233 235;stroke-dashoffset:234;animation:zOIXdZre_draw 2500ms linear 800ms forwards;}.zOIXdZre_17{stroke-dasharray:136 138;stroke-dashoffset:137;animation:zOIXdZre_draw 2500ms linear 850ms forwards;}.zOIXdZre_18{stroke-dasharray:178 180;stroke-dashoffset:179;animation:zOIXdZre_draw 2500ms linear 900ms forwards;}.zOIXdZre_19{stroke-dasharray:206 208;stroke-dashoffset:207;animation:zOIXdZre_draw 2500ms linear 950ms forwards;}.zOIXdZre_20{stroke-dasharray:136 138;stroke-dashoffset:137;animation:zOIXdZre_draw 2500ms linear 1000ms forwards;}.zOIXdZre_21{stroke-dasharray:102 104;stroke-dashoffset:103;animation:zOIXdZre_draw 2500ms linear 1050ms forwards;}.zOIXdZre_22{stroke-dasharray:70 72;stroke-dashoffset:71;animation:zOIXdZre_draw 2500ms linear 1100ms forwards;}.zOIXdZre_23{stroke-dasharray:111 113;stroke-dashoffset:112;animation:zOIXdZre_draw 2500ms linear 1150ms forwards;}.zOIXdZre_24{stroke-dasharray:161 163;stroke-dashoffset:162;animation:zOIXdZre_draw 2500ms linear 1200ms forwards;}.zOIXdZre_25{stroke-dasharray:102 104;stroke-dashoffset:103;animation:zOIXdZre_draw 2500ms linear 1250ms forwards;}.zOIXdZre_26{stroke-dasharray:131 133;stroke-dashoffset:132;animation:zOIXdZre_draw 2500ms linear 1300ms forwards;}.zOIXdZre_27{stroke-dasharray:178 180;stroke-dashoffset:179;animation:zOIXdZre_draw 2500ms linear 1350ms forwards;}.zOIXdZre_28{stroke-dasharray:70 72;stroke-dashoffset:71;animation:zOIXdZre_draw 2500ms linear 1400ms forwards;}.zOIXdZre_29{stroke-dasharray:136 138;stroke-dashoffset:137;animation:zOIXdZre_draw 2500ms linear 1450ms forwards;}.zOIXdZre_30{stroke-dasharray:127 129;stroke-dashoffset:128;animation:zOIXdZre_draw 2500ms linear 1500ms forwards;}@keyframes zOIXdZre_draw{100%{stroke-dashoffset:0;}}@keyframes zOIXdZre_fade{0%{stroke-opacity:1;}95.1219512195122%{stroke-opacity:1;}100%{stroke-opacity:0;}}</style></svg>
